<svg version="1.1" viewBox="0.0 0.0 474.8923884514436 223.58005249343833" fill="none" stroke="none" stroke-linecap="square" stroke-miterlimit="10" xmlns:xlink="http://www.w3.org/1999/xlink" xmlns="http://www.w3.org/2000/svg"><clipPath id="p.0"><path d="m0 0l474.8924 0l0 223.58005l-474.8924 0l0 -223.58005z" clip-rule="nonzero"/></clipPath><g clip-path="url(#p.0)"><path fill="#000000" fill-opacity="0.0" d="m0 0l474.8924 0l0 223.58005l-474.8924 0z" fill-rule="evenodd"/><path fill="#000000" fill-opacity="0.0" d="m189.0 123.0l156.0 -78.99213" fill-rule="evenodd"/><path stroke="#000000" stroke-width="2.0" stroke-linejoin="round" stroke-linecap="butt" d="m189.0 123.0l156.0 -78.99213" fill-rule="evenodd"/><path fill="#000000" fill-opacity="0.0" d="m131.09683 89.19656l45.889755 25.795273" fill-rule="evenodd"/><path stroke="#000000" stroke-width="1.0" stroke-linejoin="round" stroke-linecap="butt" d="m131.09683 89.19656l45.889755 25.795273" fill-rule="evenodd"/><path fill="#000000" fill-opacity="0.0" d="m179.0 34.0l-5.0078735 78.99213" fill-rule="evenodd"/><path stroke="#000000" stroke-width="1.0" stroke-linejoin="round" stroke-linecap="butt" d="m179.0 34.0l-5.0078735 78.99213" fill-rule="evenodd"/><path fill="#000000" fill-opacity="0.0" d="m346.0 42.501312l-19.496063 66.99213" fill-rule="evenodd"/><path stroke="#000000" stroke-width="1.0" stroke-linejoin="round" stroke-linecap="butt" d="m346.0 42.501312l-19.496063 66.99213" fill-rule="evenodd"/><path fill="#000000" fill-opacity="0.0" d="m346.5013 43.501312l40.53543 69.00787" fill-rule="evenodd"/><path stroke="#000000" stroke-width="1.0" stroke-linejoin="round" stroke-linecap="butt" d="m346.5013 43.501312l40.53543 69.00787" fill-rule="evenodd"/><path fill="#a4c2f4" d="m103.29921 77.68241l0 0c0 -8.993103 7.2903595 -16.283463 16.28347 -16.283463l0 0c4.3186417 0 8.460411 1.7155762 11.514153 4.7693176c3.0537415 3.0537415 4.7693024 7.195503 4.7693024 11.514145l0 0c0 8.993111 -7.290344 16.28347 -16.283455 16.28347l0 0c-8.993111 0 -16.28347 -7.2903595 -16.28347 -16.28347z" fill-rule="evenodd"/><path stroke="#000000" stroke-width="1.0" stroke-linejoin="round" stroke-linecap="butt" d="m103.29921 77.68241l0 0c0 -8.993103 7.2903595 -16.283463 16.28347 -16.283463l0 0c4.3186417 0 8.460411 1.7155762 11.514153 4.7693176c3.0537415 3.0537415 4.7693024 7.195503 4.7693024 11.514145l0 0c0 8.993111 -7.290344 16.28347 -16.283455 16.28347l0 0c-8.993111 0 -16.28347 -7.2903595 -16.28347 -16.28347z" fill-rule="evenodd"/><path fill="#6d9eeb" d="m151.29921 31.446194l0 0c0 -14.385494 12.493729 -26.047243 27.905518 -26.047243l0 0c15.411789 0 27.905502 11.661749 27.905502 26.047243l0 0c0 14.385498 -12.493713 26.047245 -27.905502 26.047245l0 0c-15.411789 0 -27.905518 -11.661747 -27.905518 -26.047245z" fill-rule="evenodd"/><path stroke="#000000" stroke-width="1.0" stroke-linejoin="round" stroke-linecap="butt" d="m151.29921 31.446194l0 0c0 -14.385494 12.493729 -26.047243 27.905518 -26.047243l0 0c15.411789 0 27.905502 11.661749 27.905502 26.047243l0 0c0 14.385498 -12.493713 26.047245 -27.905502 26.047245l0 0c-15.411789 0 -27.905518 -11.661747 -27.905518 -26.047245z" fill-rule="evenodd"/><path fill="#3c78d8" d="m151.29921 114.70604l0 0c0 -11.767578 10.413788 -21.30709 23.259842 -21.30709l0 0c12.846054 0 23.259842 9.539513 23.259842 21.30709l0 0c0 11.767578 -10.413788 21.307083 -23.259842 21.307083l0 0c-12.846054 0 -23.259842 -9.539505 -23.259842 -21.307083z" fill-rule="evenodd"/><path stroke="#000000" stroke-width="1.0" stroke-linejoin="round" stroke-linecap="butt" d="m151.29921 114.70604l0 0c0 -11.767578 10.413788 -21.30709 23.259842 -21.30709l0 0c12.846054 0 23.259842 9.539513 23.259842 21.30709l0 0c0 11.767578 -10.413788 21.307083 -23.259842 21.307083l0 0c-12.846054 0 -23.259842 -9.539505 -23.259842 -21.307083z" fill-rule="evenodd"/><path fill="#ffe599" d="m311.29922 46.217846l0 0c0 -18.125376 15.617157 -32.818893 34.881866 -32.818893l0 0c9.251251 0 18.123596 3.457695 24.665222 9.6124325c6.541626 6.1547375 10.216675 14.502354 10.216675 23.206463l0 0c0 18.125378 -15.617157 32.818897 -34.881897 32.818897l0 0c-19.26471 0 -34.881866 -14.69352 -34.881866 -32.818897z" fill-rule="evenodd"/><path stroke="#000000" stroke-width="1.0" stroke-linejoin="round" stroke-linecap="butt" d="m311.29922 46.217846l0 0c0 -18.125376 15.617157 -32.818893 34.881866 -32.818893l0 0c9.251251 0 18.123596 3.457695 24.665222 9.6124325c6.541626 6.1547375 10.216675 14.502354 10.216675 23.206463l0 0c0 18.125378 -15.617157 32.818897 -34.881897 32.818897l0 0c-19.26471 0 -34.881866 -14.69352 -34.881866 -32.818897z" fill-rule="evenodd"/><path fill="#ffd966" d="m359.29922 111.4462l0 0c0 -14.385498 12.493713 -26.047249 27.905487 -26.047249l0 0c15.411804 0 27.905518 11.661751 27.905518 26.047249l0 0c0 14.38549 -12.493713 26.047241 -27.905518 26.047241l0 0c-15.411774 0 -27.905487 -11.661751 -27.905487 -26.047241z" fill-rule="evenodd"/><path stroke="#000000" stroke-width="1.0" stroke-linejoin="round" stroke-linecap="butt" d="m359.29922 111.4462l0 0c0 -14.385498 12.493713 -26.047249 27.905487 -26.047249l0 0c15.411804 0 27.905518 11.661751 27.905518 26.047249l0 0c0 14.38549 -12.493713 26.047241 -27.905518 26.047241l0 0c-15.411774 0 -27.905487 -11.661751 -27.905487 -26.047241z" fill-rule="evenodd"/><path fill="#fff2cc" d="m311.29922 108.28084l0 0c0 -8.21904 6.662842 -14.881889 14.881866 -14.881889l0 0c3.94693 0 7.7322083 1.5679092 10.523102 4.358803c2.7908936 2.7909012 4.358795 6.5761642 4.358795 10.523087l0 0c0 8.21904 -6.662842 14.881889 -14.881897 14.881889l0 0c-8.219025 0 -14.881866 -6.6628494 -14.881866 -14.881889z" fill-rule="evenodd"/><path stroke="#000000" stroke-width="1.0" stroke-linejoin="round" stroke-linecap="butt" d="m311.29922 108.28084l0 0c0 -8.21904 6.662842 -14.881889 14.881866 -14.881889l0 0c3.94693 0 7.7322083 1.5679092 10.523102 4.358803c2.7908936 2.7909012 4.358795 6.5761642 4.358795 10.523087l0 0c0 8.21904 -6.662842 14.881889 -14.881897 14.881889l0 0c-8.219025 0 -14.881866 -6.6628494 -14.881866 -14.881889z" fill-rule="evenodd"/><path fill="#000000" fill-opacity="0.0" d="m-9.818897 129.52493l523.81104 0l0 109.88977l-523.81104 0z" fill-rule="evenodd"/><path fill="#1c4587" d="m32.774853 210.95493q-6.046875 0 -11.3125 -2.28125q-5.265625 -2.28125 -9.1875 -6.34375q-3.90625 -4.0625 -6.1093755 -9.515625q-2.203125 -5.453125 -2.203125 -11.796875q0 -6.28125 2.203125 -11.6875q2.2031255 -5.40625 6.1093755 -9.46875q3.921875 -4.078125 9.140625 -6.390625q5.234375 -2.3125 11.359375 -2.3125q5.75 0 9.890625 1.5q4.140625 1.484375 8.328125 4.921875q0.59375 0.4375 0.921875 0.921875q0.34375 0.484375 0.453125 0.96875q0.109375 0.484375 0.109375 1.15625q0 1.421875 -1.015625 2.359375q-1.0 0.9375 -2.421875 1.046875q-1.40625 0.109375 -2.75 -0.9375q-2.765625 -2.390625 -5.71875 -3.65625q-2.9375 -1.265625 -7.796875 -1.265625q-4.40625 0 -8.296875 1.796875q-3.875 1.78125 -6.828125 4.921875q-2.9375 3.125 -4.578125 7.28125q-1.640625 4.140625 -1.640625 8.84375q0 4.78125 1.640625 8.921875q1.640625 4.140625 4.578125 7.28125q2.953125 3.125 6.828125 4.890625q3.890625 1.75 8.296875 1.75q3.8125 0 7.203125 -1.296875q3.40625 -1.3125 6.53125 -3.625q1.34375 -0.984375 2.640625 -0.859375q1.3125 0.109375 2.203125 1.046875q0.90625 0.921875 0.90625 2.5625q0 0.75 -0.296875 1.46875q-0.296875 0.703125 -0.890625 1.296875q-4.03125 3.21875 -8.625 4.859375q-4.59375 1.640625 -9.671875 1.640625zm40.836025 -0.75q-3.28125 0 -5.828125 -1.78125q-2.53125 -1.796875 -3.9531212 -4.890625q-1.421875 -3.109375 -1.421875 -7.140625l0 -40.765625q0 -1.640625 1.046875 -2.6875q1.0468712 -1.046875 2.6874962 -1.046875q1.640625 0 2.6875 1.046875q1.046875 1.046875 1.046875 2.6875l0 40.765625q0 2.765625 1.046875 4.5625q1.046875 1.78125 2.6875 1.78125l1.875 0q1.484375 0 2.421875 1.046875q0.9375 1.046875 0.9375 2.6875q0 1.640625 -1.421875 2.6875q-1.421875 1.046875 -3.65625 1.046875l-0.15625 0zm29.865631 0.375q-5.15625 0 -9.234375 -2.203125q-4.0625 -2.203125 -6.421875 -6.453125q-2.34375 -4.265625 -2.34375 -10.453125l0 -18.375q0 -1.640625 1.078125 -2.71875q1.09375 -1.078125 2.734375 -1.078125q1.640625 0 2.71875 1.078125q1.09375 1.078125 1.09375 2.71875l0 18.375q0 4.171875 1.5625 6.90625q1.5625 2.71875 4.25 4.03125q2.703125 1.296875 6.0625 1.296875q3.203125 0 5.703125 -1.265625q2.5 -1.265625 3.984375 -3.421875q1.5 -2.171875 1.5 -4.859375l4.703125 0q0 4.625 -2.28125 8.359375q-2.265625 3.734375 -6.1875 5.90625q-3.921875 2.15625 -8.921875 2.15625zm16.5 -0.375q-1.640625 0 -2.734375 -1.078125q-1.078125 -1.09375 -1.078125 -2.734375l0 -33.296875q0 -1.71875 1.078125 -2.75q1.09375 -1.046875 2.734375 -1.046875q1.71875 0 2.765625 1.046875q1.046875 1.03125 1.046875 2.75l0 33.296875q0 1.640625 -1.046875 2.734375q-1.046875 1.078125 -2.765625 1.078125zm32.103065 0.296875q-5.234375 0 -9.671875 -1.59375q-4.4375 -1.609375 -6.90625 -4.078125q-1.125 -1.1875 -0.9375 -2.71875q0.1875 -1.53125 1.46875 -2.5q1.484375 -1.203125 2.9375 -1.015625q1.453125 0.1875 2.5 1.3125q1.28125 1.40625 4.078125 2.640625q2.796875 1.234375 6.234375 1.234375q4.328125 0 6.59375 -1.40625q2.28125 -1.421875 2.359375 -3.671875q0.078125 -2.234375 -2.125 -3.875q-2.203125 -1.640625 -8.03125 -2.6875q-7.53125 -1.5 -10.9375 -4.484375q-3.390625 -2.984375 -3.390625 -7.3125q0 -3.8125 2.234375 -6.3125q2.25 -2.5 5.75 -3.734375q3.515625 -1.234375 7.3125 -1.234375q4.9375 0 8.734375 1.578125q3.8125 1.5625 6.046875 4.328125q1.046875 1.1875 0.96875 2.5q-0.0625 1.296875 -1.265625 2.203125q-1.1875 0.8125 -2.828125 0.515625q-1.640625 -0.296875 -2.765625 -1.34375q-1.859375 -1.78125 -4.03125 -2.453125q-2.171875 -0.671875 -5.0 -0.671875q-3.28125 0 -5.5625 1.125q-2.28125 1.109375 -2.28125 3.265625q0 1.34375 0.703125 2.4375q0.71875 1.078125 2.796875 1.9375q2.09375 0.859375 6.140625 1.671875q5.59375 1.125 8.84375 2.84375q3.25 1.71875 4.65625 4.0q1.421875 2.265625 1.421875 5.265625q0 3.421875 -1.828125 6.1875q-1.828125 2.765625 -5.375 4.40625q-3.546875 1.640625 -8.84375 1.640625zm40.538345 -0.296875q-3.734375 0 -6.71875 -1.90625q-2.984375 -1.90625 -4.703125 -5.1875q-1.71875 -3.28125 -1.71875 -7.390625l0 -35.609375q0 -1.640625 1.046875 -2.6875q1.046875 -1.046875 2.6875 -1.046875q1.640625 0 2.6875 1.046875q1.046875 1.046875 1.046875 2.6875l0 35.609375q0 2.984375 1.640625 5.0q1.640625 2.015625 4.03125 2.015625l2.53125 0q1.34375 0 2.28125 1.046875q0.9375 1.046875 0.9375 2.6875q0 1.640625 -1.234375 2.6875q-1.234375 1.046875 -3.171875 1.046875l-1.34375 0zm-16.578125 -32.921875q-1.5625 0 -2.53125 -0.890625q-0.96875 -0.90625 -0.96875 -2.25q0 -1.484375 0.96875 -2.375q0.96875 -0.90625 2.53125 -0.90625l17.25 0q1.5625 0 2.53125 0.90625q0.96875 0.890625 0.96875 2.375q0 1.34375 -0.96875 2.25q-0.96875 0.890625 -2.53125 0.890625l-17.25 0zm50.8434 33.21875q-6.203125 0 -11.015625 -2.640625q-4.8125 -2.65625 -7.546875 -7.3125q-2.71875 -4.671875 -2.71875 -10.71875q0 -6.125 2.578125 -10.78125q2.578125 -4.671875 7.125 -7.328125q4.5625 -2.65625 10.453125 -2.65625q5.828125 0 10.0 2.578125q4.1875 2.578125 6.390625 7.09375q2.203125 4.515625 2.203125 10.421875q0 1.40625 -0.96875 2.34375q-0.96875 0.9375 -2.46875 0.9375l-30.078125 0l0 -5.96875l29.859375 0l-3.0625 2.078125q-0.078125 -3.734375 -1.5 -6.671875q-1.40625 -2.953125 -4.03125 -4.671875q-2.609375 -1.71875 -6.34375 -1.71875q-4.25 0 -7.28125 1.875q-3.015625 1.859375 -4.59375 5.109375q-1.5625 3.25 -1.5625 7.359375q0 4.09375 1.859375 7.3125q1.875 3.203125 5.15625 5.078125q3.296875 1.859375 7.546875 1.859375q2.3125 0 4.734375 -0.859375q2.4375 -0.859375 3.921875 -1.96875q1.125 -0.828125 2.421875 -0.859375q1.3125 -0.046875 2.28125 0.78125q1.265625 1.125 1.34375 2.46875q0.078125 1.34375 -1.1875 2.3125q-2.546875 2.015625 -6.3125 3.28125q-3.765625 1.265625 -7.203125 1.265625zm30.830246 -25.828125q0 -4.484375 2.203125 -8.03125q2.203125 -3.546875 5.9375 -5.625q3.734375 -2.09375 8.21875 -2.09375q4.46875 0 6.671875 1.453125q2.203125 1.453125 1.6875 3.46875q-0.234375 1.046875 -0.875 1.609375q-0.625 0.5625 -1.453125 0.71875q-0.8125 0.140625 -1.78125 -0.09375q-4.78125 -0.96875 -8.59375 -0.140625q-3.796875 0.8125 -6.0 3.0625q-2.203125 2.234375 -2.203125 5.671875l-3.8125 0zm0.078125 25.53125q-1.7968597 0 -2.7656097 -0.921875q-0.96875 -0.9375 -0.96875 -2.8125l0 -33.375q0 -1.78125 0.96875 -2.75q0.96875 -0.984375 2.7656097 -0.984375q1.859375 0 2.796875 0.9375q0.9375 0.9375 0.9375 2.796875l0 33.375q0 1.796875 -0.9375 2.765625q-0.9375 0.96875 -2.796875 0.96875z" fill-rule="nonzero"/><path fill="#7f6000" d="m309.60577 210.95493q-4.78125 0 -9.109375 -1.484375q-4.328125 -1.5 -7.546875 -4.1875q-3.203125 -2.6875 -4.703125 -6.203125q-0.75 -1.5625 0.03125 -2.90625q0.796875 -1.34375 2.65625 -1.71875q1.34375 -0.296875 2.640625 0.421875q1.3125 0.703125 1.984375 2.109375q0.90625 1.875 2.953125 3.4375q2.0625 1.5625 4.96875 2.546875q2.90625 0.96875 6.125 0.96875q3.578125 0 6.59375 -1.125q3.03125 -1.125 4.890625 -3.25q1.875 -2.125 1.875 -5.265625q0 -3.953125 -3.109375 -7.078125q-3.09375 -3.140625 -10.171875 -3.890625q-9.265625 -0.890625 -14.5625 -5.4375q-5.296875 -4.5625 -5.296875 -11.28125q0 -4.9375 2.75 -8.359375q2.765625 -3.4375 7.5 -5.234375q4.75 -1.796875 10.578125 -1.796875q4.546875 0 7.9375 1.28125q3.40625 1.265625 5.9375 3.515625q2.546875 2.234375 4.40625 5.28125q1.046875 1.65625 0.859375 3.109375q-0.1875 1.453125 -1.453125 2.265625q-1.421875 0.90625 -3.0625 0.390625q-1.640625 -0.53125 -2.46875 -1.953125q-1.1875 -2.15625 -2.90625 -3.65625q-1.71875 -1.5 -4.03125 -2.34375q-2.3125 -0.859375 -5.453125 -0.859375q-5.515625 -0.078125 -9.25 2.046875q-3.734375 2.125 -3.734375 6.53125q0 2.234375 1.15625 4.296875q1.15625 2.046875 4.25 3.546875q3.109375 1.484375 8.921875 2.078125q8.890625 0.90625 13.84375 5.421875q4.96875 4.515625 4.96875 11.90625q0 4.25 -1.75 7.390625q-1.75 3.140625 -4.703125 5.265625q-2.953125 2.125 -6.71875 3.171875q-3.765625 1.046875 -7.796875 1.046875zm41.800995 -0.75q-3.28125 0 -5.828125 -1.78125q-2.53125 -1.796875 -3.953125 -4.890625q-1.421875 -3.109375 -1.421875 -7.140625l0 -40.765625q0 -1.640625 1.046875 -2.6875q1.046875 -1.046875 2.6875 -1.046875q1.640625 0 2.6875 1.046875q1.046875 1.046875 1.046875 2.6875l0 40.765625q0 2.765625 1.046875 4.5625q1.046875 1.78125 2.6875 1.78125l1.875 0q1.484375 0 2.421875 1.046875q0.9375 1.046875 0.9375 2.6875q0 1.640625 -1.421875 2.6875q-1.421875 1.046875 -3.65625 1.046875l-0.15625 0zm17.240631 0q-1.640625 0 -2.71875 -1.078125q-1.078125 -1.09375 -1.078125 -2.734375l0 -33.21875q0 -1.71875 1.078125 -2.765625q1.078125 -1.046875 2.71875 -1.046875q1.71875 0 2.765625 1.046875q1.046875 1.046875 1.046875 2.765625l0 33.21875q0 1.640625 -1.046875 2.734375q-1.046875 1.078125 -2.765625 1.078125zm0 -47.484375q-2.015625 0 -3.46875 -1.453125q-1.453125 -1.453125 -1.453125 -3.46875q0 -2.015625 1.453125 -3.46875q1.453125 -1.46875 3.46875 -1.46875q2.015625 0 3.46875 1.46875q1.46875 1.453125 1.46875 3.46875q0 2.015625 -1.46875 3.46875q-1.453125 1.453125 -3.46875 1.453125zm36.514954 47.78125q-5.96875 0 -10.640625 -2.71875q-4.671875 -2.734375 -7.328125 -7.390625q-2.640625 -4.671875 -2.640625 -10.5625q0 -6.046875 2.609375 -10.75q2.625 -4.703125 7.171875 -7.359375q4.5625 -2.65625 10.453125 -2.65625q4.40625 0 8.0625 1.6875q3.65625 1.671875 6.578125 5.03125q1.03125 1.203125 0.734375 2.46875q-0.296875 1.265625 -1.640625 2.234375q-1.046875 0.75 -2.3125 0.5q-1.265625 -0.265625 -2.3125 -1.3125q-3.65625 -3.890625 -9.109375 -3.890625q-3.8125 0 -6.71875 1.765625q-2.90625 1.75 -4.5625 4.890625q-1.640625 3.125 -1.640625 7.390625q0 4.03125 1.671875 7.171875q1.6875 3.125 4.671875 4.953125q3.0 1.828125 6.953125 1.828125q2.609375 0 4.578125 -0.625q1.984375 -0.640625 3.640625 -1.984375q1.1875 -0.96875 2.453125 -1.078125q1.265625 -0.125 2.25 0.703125q1.265625 1.046875 1.40625 2.359375q0.15625 1.296875 -0.890625 2.34375q-5.375 5.0 -13.4375 5.0zm45.540283 0q-6.203125 0 -11.015625 -2.640625q-4.8125 -2.65625 -7.546875 -7.3125q-2.71875 -4.671875 -2.71875 -10.71875q0 -6.125 2.578125 -10.78125q2.578125 -4.671875 7.125 -7.328125q4.5625 -2.65625 10.453125 -2.65625q5.828125 0 10.0 2.578125q4.1875 2.578125 6.390625 7.09375q2.203125 4.515625 2.203125 10.421875q0 1.40625 -0.96875 2.34375q-0.96875 0.9375 -2.46875 0.9375l-30.078125 0l0 -5.96875l29.859375 0l-3.0625 2.078125q-0.078125 -3.734375 -1.5 -6.671875q-1.40625 -2.953125 -4.03125 -4.671875q-2.609375 -1.71875 -6.34375 -1.71875q-4.25 0 -7.28125 1.875q-3.015625 1.859375 -4.59375 5.109375q-1.5625 3.25 -1.5625 7.359375q0 4.09375 1.859375 7.3125q1.875 3.203125 5.15625 5.078125q3.296875 1.859375 7.546875 1.859375q2.3125 0 4.734375 -0.859375q2.4375 -0.859375 3.921875 -1.96875q1.125 -0.828125 2.421875 -0.859375q1.3125 -0.046875 2.28125 0.78125q1.265625 1.125 1.34375 2.46875q0.078125 1.34375 -1.1875 2.3125q-2.546875 2.015625 -6.3125 3.28125q-3.765625 1.265625 -7.203125 1.265625z" fill-rule="nonzero"/></g></svg>